Coordinates
version=1
nRows=41
nColumns=21
inDegrees=no
endheader
time	ra_wr_s_p	ra_wr_e_f	ra_cmc1_ad_ab	ra_cmc1_f_e	ra_mcp1_f_e	ra_ip1_f_e	ra_mcp2_e_f	ra_pip2_e_f	ra_dip2_e_f	ra_mcp3_e_f	ra_pip3_e_f	ra_dip3_e_f	ra_mcp4_e_f	ra_pip4_e_f	ra_dip4_e_f	ra_mcp5_e_f	ra_pip5_e_f	ra_dip5_e_f	ra_el_e_f	ra_wr_ad_ab
0.000000	0.000000	0.087300	0.436350	0.436350	-0.392700	-0.785400	0.785400	1.047200	0.785400	0.785400	1.047200	0.785400	0.785400	1.047200	0.785400	0.785400	1.047200	0.785400	0.000000	0.085000
0.001000	0.000000	0.087300	0.436352	0.436348	-0.392698	-0.785396	0.785396	1.047195	0.785396	0.785396	1.047195	0.785396	0.785396	1.047195	0.785396	0.785396	1.047195	0.785396	0.000000	0.085000
0.002000	0.000000	0.087300	0.436357	0.436343	-0.392694	-0.785388	0.785388	1.047184	0.785388	0.785388	1.047184	0.785388	0.785388	1.047184	0.785388	0.785388	1.047184	0.785388	0.000000	0.085000
0.003000	0.000000	0.087300	0.436363	0.436337	-0.392688	-0.785376	0.785376	1.047168	0.785376	0.785376	1.047168	0.785376	0.785376	1.047168	0.785376	0.785376	1.047168	0.785376	0.000000	0.085000
0.004000	0.000000	0.087300	0.436372	0.436328	-0.392680	-0.785360	0.785360	1.047146	0.785360	0.785360	1.047146	0.785360	0.785360	1.047146	0.785360	0.785360	1.047146	0.785360	0.000000	0.085000
0.005000	0.000000	0.087300	0.436384	0.436316	-0.392670	-0.785339	0.785339	1.047119	0.785339	0.785339	1.047119	0.785339	0.785339	1.047119	0.785339	0.785339	1.047119	0.785339	0.000000	0.085000
0.006000	0.000000	0.087300	0.436397	0.436303	-0.392657	-0.785315	0.785315	1.047086	0.785315	0.785315	1.047086	0.785315	0.785315	1.047086	0.785315	0.785315	1.047086	0.785315	0.000000	0.085000
0.007000	0.000000	0.087300	0.436413	0.436287	-0.392643	-0.785286	0.785286	1.047048	0.785286	0.785286	1.047048	0.785286	0.785286	1.047048	0.785286	0.785286	1.047048	0.785286	0.000000	0.085000
0.008000	0.000000	0.087300	0.436432	0.436268	-0.392626	-0.785253	0.785253	1.047003	0.785253	0.785253	1.047003	0.785253	0.785253	1.047003	0.785253	0.785253	1.047003	0.785253	0.000000	0.085000
0.009000	0.000000	0.087300	0.436453	0.436247	-0.392607	-0.785215	0.785215	1.046953	0.785215	0.785215	1.046953	0.785215	0.785215	1.046953	0.785215	0.785215	1.046953	0.785215	0.000000	0.085000
0.010000	0.000000	0.087300	0.436476	0.436224	-0.392586	-0.785173	0.785173	1.046897	0.785173	0.785173	1.046897	0.785173	0.785173	1.046897	0.785173	0.785173	1.046897	0.785173	0.000000	0.085000
0.011000	0.000000	0.087300	0.436502	0.436198	-0.392563	-0.785126	0.785126	1.046835	0.785126	0.785126	1.046835	0.785126	0.785126	1.046835	0.785126	0.785126	1.046835	0.785126	0.000000	0.085000
0.012000	0.000000	0.087300	0.436531	0.436169	-0.392538	-0.785075	0.785075	1.046767	0.785075	0.785075	1.046767	0.785075	0.785075	1.046767	0.785075	0.785075	1.046767	0.785075	0.000000	0.085000
0.013000	0.000000	0.087300	0.436561	0.436138	-0.392510	-0.785019	0.785019	1.046692	0.785019	0.785019	1.046692	0.785019	0.785019	1.046692	0.785019	0.785019	1.046692	0.785019	0.000000	0.085000
0.014000	0.000000	0.087300	0.436595	0.436105	-0.392479	-0.784959	0.784959	1.046612	0.784959	0.784959	1.046612	0.784959	0.784959	1.046612	0.784959	0.784959	1.046612	0.784959	0.000000	0.085000
0.015000	0.000000	0.087300	0.436631	0.436069	-0.392447	-0.784894	0.784894	1.046525	0.784894	0.784894	1.046525	0.784894	0.784894	1.046525	0.784894	0.784894	1.046525	0.784894	0.000000	0.085000
0.016000	0.000000	0.087300	0.436670	0.436030	-0.392412	-0.784824	0.784824	1.046432	0.784824	0.784824	1.046432	0.784824	0.784824	1.046432	0.784824	0.784824	1.046432	0.784824	0.000000	0.085000
0.017000	0.000000	0.087300	0.436712	0.435988	-0.392374	-0.784749	0.784749	1.046332	0.784749	0.784749	1.046332	0.784749	0.784749	1.046332	0.784749	0.784749	1.046332	0.784749	0.000000	0.085000
0.018000	0.000000	0.087300	0.436756	0.435944	-0.392335	-0.784669	0.784669	1.046226	0.784669	0.784669	1.046226	0.784669	0.784669	1.046226	0.784669	0.784669	1.046226	0.784669	0.000000	0.085000
0.019000	0.000000	0.087300	0.436803	0.435897	-0.392292	-0.784584	0.784584	1.046113	0.784584	0.784584	1.046113	0.784584	0.784584	1.046113	0.784584	0.784584	1.046113	0.784584	0.000000	0.085000
0.020000	0.000000	0.087300	0.436853	0.435847	-0.392247	-0.784495	0.784495	1.045993	0.784495	0.784495	1.045993	0.784495	0.784495	1.045993	0.784495	0.784495	1.045993	0.784495	0.000000	0.085000
0.021000	0.000000	0.087300	0.436906	0.435794	-0.392200	-0.784400	0.784400	1.045867	0.784400	0.784400	1.045867	0.784400	0.784400	1.045867	0.784400	0.784400	1.045867	0.784400	0.000000	0.085000
0.022000	0.000000	0.087300	0.436961	0.435739	-0.392150	-0.784300	0.784300	1.045733	0.784300	0.784300	1.045733	0.784300	0.784300	1.045733	0.784300	0.784300	1.045733	0.784300	0.000000	0.085000
0.023000	0.000000	0.087300	0.437020	0.435680	-0.392097	-0.784195	0.784195	1.045593	0.784195	0.784195	1.045593	0.784195	0.784195	1.045593	0.784195	0.784195	1.045593	0.784195	0.000000	0.085000
0.024000	0.000000	0.087300	0.437081	0.435619	-0.392042	-0.784084	0.784084	1.045446	0.784084	0.784084	1.045446	0.784084	0.784084	1.045446	0.784084	0.784084	1.045446	0.784084	0.000000	0.085000
0.025000	0.000000	0.087300	0.437145	0.435555	-0.391984	-0.783968	0.783968	1.045291	0.783968	0.783968	1.045291	0.783968	0.783968	1.045291	0.783968	0.783968	1.045291	0.783968	0.000000	0.085000
0.026000	0.000000	0.087300	0.437213	0.435487	-0.391924	-0.783847	0.783847	1.045130	0.783847	0.783847	1.045130	0.783847	0.783847	1.045130	0.783847	0.783847	1.045130	0.783847	0.000000	0.085000
0.027000	0.000000	0.087300	0.437283	0.435417	-0.391860	-0.783720	0.783720	1.044961	0.783720	0.783720	1.044961	0.783720	0.783720	1.044961	0.783720	0.783720	1.044961	0.783720	0.000000	0.085000
0.028000	0.000000	0.087300	0.437357	0.435343	-0.391794	-0.783588	0.783588	1.044784	0.783588	0.783588	1.044784	0.783588	0.783588	1.044784	0.783588	0.783588	1.044784	0.783588	0.000000	0.085000
0.029000	0.000000	0.087300	0.437433	0.435267	-0.391725	-0.783450	0.783450	1.044600	0.783450	0.783450	1.044600	0.783450	0.783450	1.044600	0.783450	0.783450	1.044600	0.783450	0.000000	0.085000
0.030000	0.000000	0.087300	0.437513	0.435187	-0.391653	-0.783307	0.783307	1.044409	0.783307	0.783307	1.044409	0.783307	0.783307	1.044409	0.783307	0.783307	1.044409	0.783307	0.000000	0.085000
0.031000	0.000000	0.087300	0.437596	0.435104	-0.391579	-0.783157	0.783157	1.044210	0.783157	0.783157	1.044210	0.783157	0.783157	1.044210	0.783157	0.783157	1.044210	0.783157	0.000000	0.085000
0.032000	0.000000	0.087300	0.437682	0.435018	-0.391501	-0.783002	0.783002	1.044003	0.783002	0.783002	1.044003	0.783002	0.783002	1.044003	0.783002	0.783002	1.044003	0.783002	0.000000	0.085000
0.033000	0.000000	0.087300	0.437772	0.434928	-0.391420	-0.782841	0.782841	1.043788	0.782841	0.782841	1.043788	0.782841	0.782841	1.043788	0.782841	0.782841	1.043788	0.782841	0.000000	0.085000
0.034000	0.000000	0.087300	0.437865	0.434835	-0.391337	-0.782674	0.782674	1.043565	0.782674	0.782674	1.043565	0.782674	0.782674	1.043565	0.782674	0.782674	1.043565	0.782674	0.000000	0.085000
0.035000	0.000000	0.087300	0.437961	0.434739	-0.391250	-0.782501	0.782501	1.043334	0.782501	0.782501	1.043334	0.782501	0.782501	1.043334	0.782501	0.782501	1.043334	0.782501	0.000000	0.085000
0.036000	0.000000	0.087300	0.438060	0.434640	-0.391161	-0.782321	0.782321	1.043095	0.782321	0.782321	1.043095	0.782321	0.782321	1.043095	0.782321	0.782321	1.043095	0.782321	0.000000	0.085000
0.037000	0.000000	0.087300	0.438163	0.434537	-0.391068	-0.782136	0.782136	1.042848	0.782136	0.782136	1.042848	0.782136	0.782136	1.042848	0.782136	0.782136	1.042848	0.782136	0.000000	0.085000
0.038000	0.000000	0.087300	0.438270	0.434430	-0.390972	-0.781944	0.781944	1.042592	0.781944	0.781944	1.042592	0.781944	0.781944	1.042592	0.781944	0.781944	1.042592	0.781944	0.000000	0.085000
0.039000	0.000000	0.087300	0.438380	0.434320	-0.390873	-0.781746	0.781746	1.042328	0.781746	0.781746	1.042328	0.781746	0.781746	1.042328	0.781746	0.781746	1.042328	0.781746	0.000000	0.085000
0.040000	0.000000	0.087300	0.438494	0.434206	-0.390771	-0.781541	0.781541	1.042055	0.781541	0.781541	1.042055	0.781541	0.781541	1.042055	0.781541	0.781541	1.042055	0.781541	0.000000	0.085000
